<!--?xml version="1.0" standalone="no"?-->
              <svg id="sw-js-blob-svg" viewBox="0 0 100 100" xmlns="http://www.w3.org/2000/svg" version="1.1">
                    <defs> 
                        <linearGradient id="sw-gradient" x1="0" x2="1" y1="1" y2="0">
                            <stop id="stop1" stop-color="rgba(102, 75, 183, 1)" offset="0%"></stop>
                            <stop id="stop2" stop-color="rgba(69, 87, 178, 1)" offset="100%"></stop>
                        </linearGradient>
                    </defs>
                <path fill="url(#sw-gradient)" d="M27.5,-30.7C35.6,-26.1,42,-17.3,42.5,-8.4C43,0.5,37.6,9.6,31.7,16.7C25.7,23.9,19.1,29.2,11.6,31.9C4.1,34.6,-4.3,34.8,-13.3,33C-22.3,31.3,-31.9,27.6,-37.7,20.4C-43.5,13.2,-45.5,2.4,-42.6,-6.4C-39.8,-15.3,-32.1,-22.1,-24.2,-26.8C-16.2,-31.5,-8.1,-33.9,0.8,-34.9C9.7,-35.8,19.5,-35.3,27.5,-30.7Z" width="100%" height="100%" transform="translate(50 50)" stroke-width="0" style="transition: all 0.3s ease 0s;" stroke="url(#sw-gradient)"></path>
              </svg>