<svg xmlns="http://www.w3.org/2000/svg" xmlns:xlink="http://www.w3.org/1999/xlink" width="500" zoomAndPan="magnify" viewBox="0 0 375 374.999991" height="500" preserveAspectRatio="xMidYMid meet" version="1.0"><defs><clipPath id="287ee41b37"><path d="M 0 66.09375 L 375 66.09375 L 375 200 L 0 200 Z M 0 66.09375 " clip-rule="nonzero"/></clipPath></defs><g clip-path="url(#287ee41b37)"><path fill="#4557b2" d="M 373.617188 127.566406 L 358.382812 174.253906 C 356.996094 178.488281 352.441406 180.800781 348.210938 179.414062 L 336.453125 175.574219 L 332.855469 186.609375 C 331.472656 190.851562 326.914062 193.167969 322.679688 191.78125 L 312.488281 188.445312 L 315.308594 172.425781 L 309.027344 191.667969 C 306.097656 196.761719 300.648438 199.859375 294.855469 199.859375 C 293.167969 199.859375 291.453125 199.597656 289.765625 199.042969 C 281.171875 196.234375 276.484375 186.984375 279.289062 178.378906 L 293.246094 135.617188 C 275.105469 126.957031 254.46875 120.539062 232.414062 116.617188 C 229.921875 116.167969 227.410156 115.75 224.878906 115.371094 C 221.214844 114.820312 217.507812 114.335938 213.777344 113.917969 C 212.335938 113.753906 210.914062 113.609375 209.460938 113.457031 C 199.804688 112.539062 189.96875 112.046875 180.015625 112.046875 L 179.421875 112.046875 C 177.585938 112.054688 175.75 112.074219 173.929688 112.113281 C 166.289062 112.253906 158.738281 112.683594 151.296875 113.378906 C 148.253906 113.667969 145.230469 113.996094 142.222656 114.371094 C 120.023438 117.152344 98.976562 122.378906 79.894531 129.929688 L 95.71875 178.378906 C 98.515625 186.992188 93.820312 196.230469 85.234375 199.050781 C 83.550781 199.609375 81.832031 199.871094 80.144531 199.871094 C 74.34375 199.871094 68.902344 196.753906 65.964844 191.660156 L 59.683594 172.433594 L 62.503906 188.445312 L 52.316406 191.78125 C 48.085938 193.160156 43.519531 190.851562 42.144531 186.609375 L 38.546875 175.578125 L 26.792969 179.40625 C 22.546875 180.804688 18.003906 178.488281 16.625 174.257812 L 1.386719 127.558594 C -0.0078125 123.328125 2.308594 118.761719 6.535156 117.382812 L 14.539062 114.769531 L 26.894531 139.867188 L 18.296875 113.546875 L 14.703125 102.503906 C 13.308594 98.273438 15.621094 93.703125 19.851562 92.324219 L 26.9375 90.019531 L 43.230469 123.140625 L 31.886719 88.390625 L 31.648438 87.679688 C 28.847656 79.078125 33.542969 69.820312 42.132812 67.019531 C 43.8125 66.460938 45.539062 66.210938 47.222656 66.210938 C 54.125 66.210938 60.535156 70.585938 62.777344 77.503906 L 75.226562 115.621094 C 96.34375 107.347656 119.683594 101.738281 144.238281 98.996094 C 145.667969 98.839844 147.101562 98.6875 148.535156 98.550781 C 150.601562 98.34375 152.675781 98.15625 154.757812 98.003906 L 156.195312 100.839844 L 164.816406 102.078125 L 164.535156 97.386719 C 165.402344 97.332031 166.269531 97.300781 167.140625 97.269531 L 167.28125 101.300781 L 180.636719 102.980469 L 181.136719 97.019531 C 181.894531 97.019531 182.652344 97.019531 183.410156 97.035156 L 182.984375 103.34375 L 200.457031 105.996094 L 201.535156 97.738281 C 202.433594 97.796875 203.335938 97.859375 204.230469 97.925781 L 203.335938 105.964844 L 223.257812 109.683594 L 224.414062 100.117188 C 226.277344 100.378906 228.125 100.667969 229.964844 100.960938 C 254.546875 104.910156 277.628906 111.773438 297.941406 121.230469 L 312.214844 77.503906 C 314.46875 70.59375 320.875 66.207031 327.769531 66.207031 C 329.457031 66.207031 331.171875 66.46875 332.859375 67.019531 C 341.453125 69.824219 346.152344 79.078125 343.335938 87.675781 L 343.105469 88.390625 L 331.765625 123.148438 L 348.058594 90.011719 L 355.144531 92.324219 C 359.375 93.710938 361.6875 98.269531 360.304688 102.503906 L 356.703125 113.546875 L 348.109375 139.875 L 360.453125 114.769531 L 368.457031 117.386719 C 372.6875 118.765625 375 123.328125 373.617188 127.566406 " fill-opacity="1" fill-rule="nonzero"/></g><path fill="#191c1e" d="M 201.515625 185.78125 L 204.296875 167.695312 L 220.425781 138.984375 L 224.878906 115.371094 C 221.214844 114.820312 217.507812 114.335938 213.777344 113.917969 C 212.335938 113.753906 210.914062 113.609375 209.460938 113.457031 C 199.804688 112.539062 189.96875 112.046875 180.015625 112.046875 L 179.421875 112.046875 L 179.464844 119.300781 L 188.113281 124.5625 L 203.570312 127.785156 L 192.035156 136.035156 L 176.664062 121.597656 L 173.929688 112.113281 C 166.289062 112.253906 158.738281 112.683594 151.296875 113.378906 L 158.160156 150.277344 L 160.199219 238.105469 L 194.996094 220.078125 L 204.570312 308.980469 L 235.726562 168.054688 L 201.515625 185.78125 " fill-opacity="1" fill-rule="nonzero"/><path fill="#191c1e" d="M 215.679688 81.527344 L 205.792969 84.007812 L 204.230469 97.925781 L 203.335938 105.964844 L 223.257812 109.683594 L 224.414062 100.117188 L 225.550781 90.722656 L 215.679688 81.527344 " fill-opacity="1" fill-rule="nonzero"/><path fill="#191c1e" d="M 194.191406 78.933594 L 184.457031 81.371094 L 183.410156 97.035156 L 182.984375 103.34375 L 200.457031 105.996094 L 201.535156 97.738281 L 203.398438 83.484375 L 194.191406 78.933594 " fill-opacity="1" fill-rule="nonzero"/><path fill="#191c1e" d="M 153.273438 85.445312 L 146.792969 89.191406 L 148.535156 98.550781 C 150.601562 98.34375 152.675781 98.15625 154.757812 98.003906 L 156.558594 105.996094 L 165.636719 103.804688 L 163.777344 84.574219 L 153.273438 85.445312 " fill-opacity="1" fill-rule="nonzero"/><path fill="#191c1e" d="M 166.683594 84.019531 L 167.140625 97.269531 L 166.683594 103.804688 L 180.820312 103.808594 L 181.136719 97.019531 L 182.371094 82.464844 L 170.214844 79.949219 L 166.683594 84.019531 " fill-opacity="1" fill-rule="nonzero"/></svg>